# xmcd
#
# Track frame offsets: 
#        150
#        16314
#        30943
#        47760
#        68304
#        84512
#        100102
#        120148
#        137047
#        156492
#        171782
#        193885
#
# Disc length: 2857 seconds
#
# Revision: 1
# Processed by: cddbd v1.5.2PL0 Copyright (c) Steve Scherf et al.
# Submitted via: ExactAudioCopyFreeDBPlugin 1.0
#
DISCID=8c0b270c
DTITLE=Boz Scaggs - Memphis (Deluxe Version)
DYEAR=2013
DGENRE=Rhythm and Blues
TTITLE0=Gone Baby Gone
TTITLE1=So Good to Be Here
TTITLE2=Mixed Up, Shook Up Girl
TTITLE3=Rainy Night in Georgia
TTITLE4=Love on a Two Way Street
TTITLE5=Pearl of the Quarter
TTITLE6=Cadillac Walk
TTITLE7=Corrina, Corrina
TTITLE8=Can I Change My Mind (ft Monet Owens)
TTITLE9=Dry Spell
TTITLE10=You Got Me Cryin'
TTITLE11=Sunny Gone
EXTD=
EXTT0=
EXTT1=
EXTT2=
EXTT3=
EXTT4=
EXTT5=
EXTT6=
EXTT7=
EXTT8=
EXTT9=
EXTT10=
EXTT11=
PLAYORDER=
